<svg xmlns="http://www.w3.org/2000/svg" width="512" height="352" viewBox="0 0 512 352"><g id="tec-nonprofit-hands" stroke="none" stroke-width="1" fill="none" fill-rule="evenodd"><g id="Group" opacity=".769" style="mix-blend-mode:multiply" transform="translate(39 3)" fill="#FABCAB"><path d="M5.467 144.63C28.684 211.1 115.975 307.443 152.86 331.382c2.35 1.525 4.615 2.899 6.796 4.129 4.63 5.117 10.858 7.315 18.044 7.492 9.974 2.34 17.42.423 22.988-4.355 14.95-5.128 30.966-13.874 44.492-21.261 1.216-.664 2.412-1.317 3.586-1.956 38.718-21.072 245.97-134.791 159.201-235.491-41.664-48.355-123.92-52.57-166.844-3.61-11.329 12.923-22.321 30.023-32.506 49.131C195.52 55.417 164.377-12.288 91.168 1.898 28.395 14.062-15.98 83.226 5.467 144.63z" id="Path"/></g><path d="M356.896 374c-3.384-21.734-30.238-159.875-48.102-169.406-17.864-9.53-30.208-39.827-39.591-49.824-5.494-5.852-4.562-15.944 7.855-12.744 10.132 2.61 43.848 7.152 28.641 21.388-15.207 14.235-9.434-51.744-9.124-64.06.31-12.315 11.39-15.402 14.053-5.342 1.749 6.603 6.611 27.072 7.743 33.813 3.599 22.303-1.448-50.18 12.673-49.825 14.12.358 4.099 43.313 11.151 55.926 7.097-5.593 1.145-50.194 14.7-46.265 13.556 3.929.07 52.331 9.16 52.331 9.089 0 8.676-20.55 16.63-24.456 12.266.31-7.42 70.408-20.957 82.837-13.536 12.429 28.534 160.593 33.272 169.09M163.782 133.14c-12.906-3.129-13.135 47.391-20.676 45.776-7.541-1.615-.072-25.893-.36-32.234-.437-9.662-11.237-9.06-13.983 2.06-2.746 11.118-24.092 67.319-4.416 59.966 19.676-7.352-13.259-20.722-22.049-25.104-10.104-6.79-13.64 7.28-9.76 13.683 9.492 15.67 18.458 46.235 31.809 57.458 14.513 12.2 5.65 93.66 4.416 114.064L161.422 377c-2.656-8.655-7.492-116.833 7.433-125.428 14.925-8.595 47.027-68.323 35.815-71.04-8.09 1.966-11.818 20.704-20.171 18.9-8.354-1.806 13.713-43.07 2.04-49.329-11.674-6.258-15.117 35.415-22.757 39.083-3.96-12.851 12.907-52.918 0-56.046z" id="Path" stroke="#0F1031" stroke-width="5" stroke-linecap="round" stroke-linejoin="round"/><path d="M458.056 401c-2.844-18.905-16.547-92.68-31.918-101.023-15.371-8.344-25.199-31.363-33.256-40.083-4.717-5.106-4.274-18.663 6.097-14.413 8.726 2.303 40.833 8.141 24.624 18.687-16.21 10.545-7.967-45.012-7.66-55.717.307-10.705 9.87-13.352 12.134-4.598 1.486 5.745 5.612 23.555 6.566 29.42 3.03 19.399-1.086-43.628 11.087-43.273 12.175.358 3.395 37.666 9.433 48.654 6.135-4.839 1.15-43.63 12.823-40.17 11.678 3.46-.108 45.492 7.731 45.521 7.834.03 7.545-17.836 14.415-21.205 10.576.31-2.64 49.712-18.337 71.942-15.697 22.23 16.82 52.103 22.205 90.806M234.25 402c-.18-15.79-3.03-77.705-14.792-86.315s-17.247-28.573-22.913-36.64c-3.317-4.723-1.39-15.757 6.705-11.076 6.958 2.898 32.861 11.404 18.23 18.142-14.629 6.738-1.413-37.73.073-46.448 1.487-8.717 9.706-9.77 10.573-2.35.568 4.872 1.934 19.914 2.049 24.82.275 16.214 4.121-35.8 14.156-34.092 10.035 1.708-1.525 31.192 2.209 40.878 5.636-3.243 5.973-35.54 15.237-31.355 9.264 4.187-5.325 37.185 1.157 38.12 6.483.936 8.3-13.706 14.374-15.662 8.716 1.483-4.956 44.107-23.456 56.692-5.164 3.513-2.678 26.28 0 38.58-1.796 27.693 0 13.285 5.202 22.634M40.056 387.858c1.572-14.03 5.823-69.281-3.745-78.2-9.568-8.92-12.28-27.232-16.457-35.006-2.446-4.552.487-14.133 7.21-9.098 5.9 3.327 32.673 17.218 18.857 21.605-13.816 4.388-1.676-37.158.609-44.732 2.285-7.573 9.748-7.613 9.707-.934-.026 4.384-.457 17.88-.893 22.246-1.533 14.418 7.976-34.244 16.758-31.638 8.782 2.607-5.15 30.438-2.875 39.44 5.393-2.265 9.36-31.864 17.182-27.14 7.82 4.722-10.93 33.152-5.238 34.687 5.691 1.535 10.889-11.02 16.533-12.095 7.07 14.968-16.602 42.344-27.19 47.754-10.587 5.41-11.082 80.191-9.558 86.253" id="Path" stroke="#0F1031" stroke-width="5" stroke-linecap="round" stroke-linejoin="round"/></g></svg>