<?xml version="1.0" encoding="UTF-8"?>
<svg width="260px" height="60px" viewBox="0 0 260 60" version="1.1" xmlns="http://www.w3.org/2000/svg" xmlns:xlink="http://www.w3.org/1999/xlink">
    <title>按钮</title>
    <defs>
        <path d="M1.14021881,2.2693373 C0.480176654,2.5221435 0,3.21461267 0,4.0347532 L0,4.0347532 L0,15.8870521 C0,22.1277297 8.39987955,27.3605644 11.2199137,28.8106067 L11.2199137,28.8106067 C11.460002,28.9365871 11.7595102,29 12.0004015,29 L12.0004015,29 C12.2404898,29 12.539998,28.9365871 12.7800863,28.8106067 L12.7800863,28.8106067 C15.6001204,27.3605644 24,22.1277297 24,15.8870521 L24,15.8870521 L24,8.35613283 L10.3334337,19.1693052 C9.49513199,19.8313362 8.29709927,19.5683839 7.77677406,18.6070439 L7.77677406,18.6070439 L3.65432099,11.9267034 C3.40459701,11.4642118 3.8976212,10.9526808 4.32881662,11.2274702 L4.32881662,11.2274702 L8.48820636,14.238316 L8.57091238,14.2873553 C8.96517113,14.5004228 9.43410619,14.5004228 9.82916792,14.2814368 L9.82916792,14.2814368 L24,6.4824922 L24,4.0347532 C24,3.21461267 23.5198233,2.5221435 22.8605842,2.2693373 L22.8605842,2.2693373 C19.3805079,0.819295023 16.0802971,0 12.0004015,0 L12.0004015,0 C7.9197029,0 4.61949212,0.819295023 1.14021881,2.2693373 L1.14021881,2.2693373 Z" id="path-1"></path>
    </defs>
    <g id="运营" stroke="none" stroke-width="1" fill="none" fill-rule="evenodd">
        <g id="画板" transform="translate(-377.000000, -390.000000)">
            <g id="按钮" transform="translate(377.000000, 390.000000)">
                <rect id="矩形" fill="#164AFF" x="0" y="0" width="260" height="60" rx="30"></rect>
                <g id="编组-2" transform="translate(24.000000, 16.000000)">
                    <g id="编组">
                        <mask id="mask-2" fill="white">
                            <use xlink:href="#path-1"></use>
                        </mask>
                        <g id="Clip-8"></g>
                    </g>
                    <g id="编组-4" transform="translate(4.000000, 2.000000)" fill="#FFFFFF">
                        <g id="MixPay">
                            <path d="M1.03956044,1.91875286 C0.435164835,2.13446545 0,2.73366709 0,3.44072502 L0,3.44072502 L0,13.675089 C0,19.0559197 7.7,23.5739001 10.2868132,24.8322235 L10.2868132,24.8322235 C10.5043956,24.9400798 10.7824176,25 11,25 L11,25 C11.2175824,25 11.4956044,24.9400798 11.7131868,24.8322235 L11.7131868,24.8322235 C14.3,23.5858841 22,19.0679038 22,13.675089 L22,13.675089 L22,7.17974325 L9.47692308,16.5153048 C8.7032967,17.0905384 7.61538462,16.8628417 7.13186813,16.0359435 L7.13186813,16.0359435 L3.34835165,10.2716237 C3.11868132,9.87615063 3.56593407,9.43274141 3.96483516,9.67242207 L3.96483516,9.67242207 L7.77252747,12.2729572 L7.84505495,12.3208933 C8.20769231,12.5006538 8.63076923,12.5006538 8.99340659,12.3208933 L8.99340659,12.3208933 L21.9879121,5.58586689 L21.9879121,3.47667712 C21.9879121,2.76961919 21.5527473,2.17041755 20.9483516,1.95470496 L20.9483516,1.95470496 C17.7571429,0.708365547 14.7351648,0.00130761273 10.9879121,0.00130761273 L10.9879121,0.00130761273 C7.26483516,-0.0346444856 4.23076923,0.672413449 1.03956044,1.91875286 L1.03956044,1.91875286 Z" id="path-1_1_"></path>
                        </g>
                        <g id="Donate-with-MixPay" transform="translate(33.539000, 4.256000)" fill-rule="nonzero">
                            <path d="M2.812,12.787 C2.95133333,12.8123333 3.11283333,12.8281667 3.2965,12.8345 C3.48016667,12.8408333 3.76833333,12.844 4.161,12.844 C5.073,12.844 5.89633333,12.6983333 6.631,12.407 C7.36566667,12.1156667 7.9895,11.7008333 8.5025,11.1625 C9.0155,10.6241667 9.41133333,9.97816667 9.69,9.2245 C9.96866667,8.47083333 10.108,7.63166667 10.108,6.707 C10.108,5.70633333 9.823,4.91466667 9.253,4.332 C8.683,3.74933333 7.752,3.458 6.46,3.458 C6.13066667,3.458 5.86783333,3.46433333 5.6715,3.477 C5.47516667,3.48966667 5.263,3.50866667 5.035,3.534 L2.812,12.787 Z M12.578,6.631 C12.578,7.809 12.388,8.90466667 12.008,9.918 C11.628,10.9313333 11.0643333,11.8053333 10.317,12.54 C9.56966667,13.2746667 8.6355,13.851 7.5145,14.269 C6.3935,14.687 5.092,14.896 3.61,14.896 C3.078,14.896 2.48266667,14.8675 1.824,14.8105 C1.16533333,14.7535 0.557333333,14.6616667 0,14.535 L3.059,1.786 C3.67966667,1.64666667 4.30666667,1.55483333 4.94,1.5105 C5.57333333,1.46616667 6.156,1.444 6.688,1.444 C7.65066667,1.444 8.49933333,1.5675 9.234,1.8145 C9.96866667,2.0615 10.583,2.40983333 11.077,2.8595 C11.571,3.30916667 11.9446667,3.85383333 12.198,4.4935 C12.4513333,5.13316667 12.578,5.84566667 12.578,6.631 Z" id="D"></path>
                            <path d="M17.499,15.01 C16.321,15.01 15.4216667,14.6616667 14.801,13.965 C14.1803333,13.2683333 13.87,12.35 13.87,11.21 C13.87,10.4753333 13.984,9.71533333 14.212,8.93 C14.44,8.14466667 14.7883333,7.429 15.257,6.783 C15.7256667,6.137 16.3146667,5.605 17.024,5.187 C17.7333333,4.769 18.5693333,4.56 19.532,4.56 C20.71,4.56 21.6093333,4.90516667 22.23,5.5955 C22.8506667,6.28583333 23.161,7.201 23.161,8.341 C23.161,9.08833333 23.0501667,9.85466667 22.8285,10.64 C22.6068333,11.4253333 22.2648333,12.141 21.8025,12.787 C21.3401667,13.433 20.7511667,13.965 20.0355,14.383 C19.3198333,14.801 18.4743333,15.01 17.499,15.01 Z M19.247,6.498 C18.753,6.498 18.3128333,6.6405 17.9265,6.9255 C17.5401667,7.2105 17.2171667,7.57466667 16.9575,8.018 C16.6978333,8.46133333 16.4983333,8.94583333 16.359,9.4715 C16.2196667,9.99716667 16.15,10.507 16.15,11.001 C16.15,11.6343333 16.2703333,12.1346667 16.511,12.502 C16.7516667,12.8693333 17.176,13.053 17.784,13.053 C18.278,13.053 18.7181667,12.9105 19.1045,12.6255 C19.4908333,12.3405 19.8138333,11.9795 20.0735,11.5425 C20.3331667,11.1055 20.5326667,10.621 20.672,10.089 C20.8113333,9.557 20.881,9.05033333 20.881,8.569 C20.881,7.93566667 20.7606667,7.43216667 20.52,7.0585 C20.2793333,6.68483333 19.855,6.498 19.247,6.498 Z" id="o"></path>
                            <path d="M26.619,5.225 C27.1256667,5.073 27.7051667,4.9305 28.3575,4.7975 C29.0098333,4.6645 29.7223333,4.598 30.495,4.598 C31.6603333,4.598 32.5153333,4.883 33.06,5.453 C33.6046667,6.023 33.877,6.78933333 33.877,7.752 C33.877,8.018 33.8548333,8.29983333 33.8105,8.5975 C33.7661667,8.89516667 33.7123333,9.20233333 33.649,9.519 L32.395,14.744 L30.096,14.744 L31.274,9.766 C31.3373333,9.48733333 31.4006667,9.20233333 31.464,8.911 C31.5273333,8.61966667 31.5653333,8.341 31.578,8.075 C31.5906667,7.63166667 31.4861667,7.26433333 31.2645,6.973 C31.0428333,6.68166667 30.609,6.536 29.963,6.536 C29.4183333,6.536 28.9496667,6.593 28.557,6.707 L26.638,14.744 L24.339,14.744 L26.619,5.225 Z" id="n"></path>
                            <path d="M43.947,10.887 C43.909,11.0263333 43.871,11.2543333 43.833,11.571 C43.795,11.8876667 43.776,12.1853333 43.776,12.464 C43.776,12.8313333 43.8076667,13.1891667 43.871,13.5375 C43.9343333,13.8858333 44.0356667,14.2373333 44.175,14.592 L42.123,14.896 C41.971,14.592 41.8506667,14.269 41.762,13.927 C41.4453333,14.2056667 41.0558333,14.4558333 40.5935,14.6775 C40.1311667,14.8991667 39.6086667,15.01 39.026,15.01 C38.4306667,15.01 37.9208333,14.9118333 37.4965,14.7155 C37.0721667,14.5191667 36.727,14.2468333 36.461,13.8985 C36.195,13.5501667 35.9986667,13.1416667 35.872,12.673 C35.7453333,12.2043333 35.682,11.6976667 35.682,11.153 C35.682,10.2283333 35.8466667,9.367 36.176,8.569 C36.5053333,7.771 36.9645,7.08066667 37.5535,6.498 C38.1425,5.91533333 38.8423333,5.45616667 39.653,5.1205 C40.4636667,4.78483333 41.3503333,4.617 42.313,4.617 C42.807,4.617 43.3041667,4.65816667 43.8045,4.7405 C44.3048333,4.82283333 44.8083333,4.978 45.315,5.206 L43.947,10.887 Z M42.693,6.593 C42.4523333,6.54233333 42.18,6.517 41.876,6.517 C41.306,6.517 40.7803333,6.6405 40.299,6.8875 C39.8176667,7.1345 39.4028333,7.46383333 39.0545,7.8755 C38.7061667,8.28716667 38.437,8.759 38.247,9.291 C38.057,9.823 37.962,10.3803333 37.962,10.963 C37.962,11.2543333 37.9873333,11.5266667 38.038,11.78 C38.0886667,12.0333333 38.1741667,12.255 38.2945,12.445 C38.4148333,12.635 38.5763333,12.787 38.779,12.901 C38.9816667,13.015 39.2413333,13.072 39.558,13.072 C39.9633333,13.072 40.3211667,12.9865 40.6315,12.8155 C40.9418333,12.6445 41.23,12.4133333 41.496,12.122 C41.5086667,11.7926667 41.5371667,11.4823333 41.5815,11.191 C41.6258333,10.8996667 41.686,10.6083333 41.762,10.317 L42.693,6.593 Z" id="a"></path>
                            <path d="M48.849,2.185 L51.243,1.805 L50.521,4.807 L53.77,4.807 L53.314,6.707 L50.065,6.707 L49.115,10.64 C49.0516667,10.9186667 49.0073333,11.1498333 48.982,11.3335 C48.9566667,11.5171667 48.944,11.685 48.944,11.837 C48.944,11.989 48.9598333,12.1378333 48.9915,12.2835 C49.0231667,12.4291667 49.0865,12.5558333 49.1815,12.6635 C49.2765,12.7711667 49.4158333,12.8598333 49.5995,12.9295 C49.7831667,12.9991667 50.0333333,13.034 50.35,13.034 C50.692,13.034 51.0213333,12.9896667 51.338,12.901 C51.6546667,12.8123333 51.9333333,12.7173333 52.174,12.616 L52.345,14.459 C52.0536667,14.5856667 51.6863333,14.706 51.243,14.82 C50.7996667,14.934 50.2803333,14.991 49.685,14.991 C48.5956667,14.991 47.8166667,14.7535 47.348,14.2785 C46.8793333,13.8035 46.645,13.1543333 46.645,12.331 C46.645,12.027 46.6671667,11.7135 46.7115,11.3905 C46.7558333,11.0675 46.8223333,10.7223333 46.911,10.355 L48.849,2.185 Z" id="t"></path>
                            <path d="M54.397,11.153 C54.397,10.3043333 54.5331667,9.48416667 54.8055,8.6925 C55.0778333,7.90083333 55.4705,7.19783333 55.9835,6.5835 C56.4965,5.96916667 57.114,5.47833333 57.836,5.111 C58.558,4.74366667 59.3686667,4.56 60.268,4.56 C61.2306667,4.56 61.978,4.807 62.51,5.301 C63.042,5.795 63.308,6.42833333 63.308,7.201 C63.308,7.999 63.1116667,8.645 62.719,9.139 C62.3263333,9.633 61.8165,10.0193333 61.1895,10.298 C60.5625,10.5766667 59.8531667,10.7666667 59.0615,10.868 C58.2698333,10.9693333 57.4686667,11.0326667 56.658,11.058 C56.6453333,11.0833333 56.639,11.1086667 56.639,11.134 L56.639,11.324 C56.639,12.4766667 57.3673333,13.053 58.824,13.053 C59.6853333,13.053 60.5466667,12.8756667 61.408,12.521 L61.598,14.383 C61.294,14.5223333 60.8633333,14.6616667 60.306,14.801 C59.7486667,14.9403333 59.1153333,15.01 58.406,15.01 C57.6966667,15.01 57.0886667,14.9086667 56.582,14.706 C56.0753333,14.5033333 55.6605,14.2246667 55.3375,13.87 C55.0145,13.5153333 54.777,13.1068333 54.625,12.6445 C54.473,12.1821667 54.397,11.685 54.397,11.153 Z M59.926,6.441 C59.546,6.441 59.185,6.517 58.843,6.669 C58.501,6.821 58.197,7.03 57.931,7.296 C57.665,7.562 57.4338333,7.8755 57.2375,8.2365 C57.0411667,8.5975 56.8986667,8.987 56.81,9.405 C58.33,9.35433333 59.4351667,9.17066667 60.1255,8.854 C60.8158333,8.53733333 61.161,8.06233333 61.161,7.429 C61.161,7.17566667 61.0691667,6.94766667 60.8855,6.745 C60.7018333,6.54233333 60.382,6.441 59.926,6.441 Z" id="e"></path>
                            <path d="M76.722,8.455 C76.4813333,8.99966667 76.209,9.56016667 75.905,10.1365 C75.601,10.7128333 75.2843333,11.2765 74.955,11.8275 C74.6256667,12.3785 74.2963333,12.9041667 73.967,13.4045 C73.6376667,13.9048333 73.3336667,14.3513333 73.055,14.744 L71.155,14.744 C71.041,14.1613333 70.9301667,13.4963333 70.8225,12.749 C70.7148333,12.0016667 70.6166667,11.2036667 70.528,10.355 C70.4393333,9.50633333 70.3601667,8.61333333 70.2905,7.676 C70.2208333,6.73866667 70.1733333,5.78233333 70.148,4.807 L72.428,4.807 C72.428,5.339 72.4343333,5.91216667 72.447,6.5265 C72.4596667,7.14083333 72.4818333,7.76783333 72.5135,8.4075 C72.5451667,9.04716667 72.5831667,9.67733333 72.6275,10.298 C72.6718333,10.9186667 72.732,11.5013333 72.808,12.046 C73.1626667,11.5013333 73.5141667,10.9218333 73.8625,10.3075 C74.2108333,9.69316667 74.5433333,9.0725 74.86,8.4455 C75.1766667,7.8185 75.4711667,7.19466667 75.7435,6.574 C76.0158333,5.95333333 76.2533333,5.36433333 76.456,4.807 L78.432,4.807 C78.432,5.32633333 78.4383333,5.87733333 78.451,6.46 C78.4636667,7.04266667 78.4858333,7.64433333 78.5175,8.265 C78.5491667,8.88566667 78.5871667,9.51583333 78.6315,10.1555 C78.6758333,10.7951667 78.736,11.4253333 78.812,12.046 C79.1413333,11.5646667 79.477,11.0136667 79.819,10.393 C80.161,9.77233333 80.4903333,9.13583333 80.807,8.4835 C81.1236667,7.83116667 81.4118333,7.18516667 81.6715,6.5455 C81.9311667,5.90583333 82.1433333,5.32633333 82.308,4.807 L84.702,4.807 C84.436,5.567 84.1098333,6.3745 83.7235,7.2295 C83.3371667,8.0845 82.9033333,8.949 82.422,9.823 C81.9406667,10.697 81.4245,11.5551667 80.8735,12.3975 C80.3225,13.2398333 79.7493333,14.022 79.154,14.744 L77.254,14.744 C77.1146667,13.68 76.9975,12.6318333 76.9025,11.5995 C76.8075,10.5671667 76.7473333,9.519 76.722,8.455 Z" id="w"></path>
                            <path d="M86.754,14.744 L84.474,14.744 L86.849,4.807 L89.148,4.807 L86.754,14.744 Z M88.464,3.306 C88.122,3.306 87.8243333,3.20466667 87.571,3.002 C87.3176667,2.79933333 87.191,2.49533333 87.191,2.09 C87.191,1.62133333 87.3525,1.235 87.6755,0.931 C87.9985,0.627 88.369,0.475 88.787,0.475 C89.129,0.475 89.4298333,0.5795 89.6895,0.7885 C89.9491667,0.9975 90.079,1.30466667 90.079,1.71 C90.079,2.17866667 89.9143333,2.56183333 89.585,2.8595 C89.2556667,3.15716667 88.882,3.306 88.464,3.306 Z" id="i"></path>
                            <path d="M92.606,2.185 L95,1.805 L94.278,4.807 L97.527,4.807 L97.071,6.707 L93.822,6.707 L92.872,10.64 C92.8086667,10.9186667 92.7643333,11.1498333 92.739,11.3335 C92.7136667,11.5171667 92.701,11.685 92.701,11.837 C92.701,11.989 92.7168333,12.1378333 92.7485,12.2835 C92.7801667,12.4291667 92.8435,12.5558333 92.9385,12.6635 C93.0335,12.7711667 93.1728333,12.8598333 93.3565,12.9295 C93.5401667,12.9991667 93.7903333,13.034 94.107,13.034 C94.449,13.034 94.7783333,12.9896667 95.095,12.901 C95.4116667,12.8123333 95.6903333,12.7173333 95.931,12.616 L96.102,14.459 C95.8106667,14.5856667 95.4433333,14.706 95,14.82 C94.5566667,14.934 94.0373333,14.991 93.442,14.991 C92.3526667,14.991 91.5736667,14.7535 91.105,14.2785 C90.6363333,13.8035 90.402,13.1543333 90.402,12.331 C90.402,12.027 90.4241667,11.7135 90.4685,11.3905 C90.5128333,11.0675 90.5793333,10.7223333 90.668,10.355 L92.606,2.185 Z" id="t"></path>
                            <path d="M97.698,14.744 L101.137,0.38 L103.531,0 L102.353,4.883 C102.606333,4.81966667 102.881833,4.7595 103.1795,4.7025 C103.477167,4.6455 103.771667,4.617 104.063,4.617 C104.620333,4.617 105.0985,4.69616667 105.4975,4.8545 C105.8965,5.01283333 106.225833,5.23133333 106.4855,5.51 C106.745167,5.78866667 106.935167,6.12433333 107.0555,6.517 C107.175833,6.90966667 107.236,7.334 107.236,7.79 C107.236,8.33466667 107.16,8.911 107.008,9.519 L105.754,14.744 L103.455,14.744 L104.652,9.766 C104.715333,9.47466667 104.778667,9.177 104.842,8.873 C104.905333,8.569 104.937,8.284 104.937,8.018 C104.937,7.6 104.826167,7.2485 104.6045,6.9635 C104.382833,6.6785 103.961667,6.536 103.341,6.536 C103.087667,6.536 102.834333,6.55816667 102.581,6.6025 C102.327667,6.64683333 102.099667,6.70066667 101.897,6.764 L99.997,14.744 L97.698,14.744 Z" id="h"></path>
                            <path d="M119.491,1.577 C119.605,2.02033333 119.734833,2.5935 119.8805,3.2965 C120.026167,3.9995 120.171833,4.75 120.3175,5.548 C120.463167,6.346 120.608833,7.15033333 120.7545,7.961 C120.900167,8.77166667 121.03,9.50633333 121.144,10.165 C121.574667,9.49366667 122.052833,8.759 122.5785,7.961 C123.104167,7.163 123.629833,6.37133333 124.1555,5.586 C124.681167,4.80066667 125.187833,4.0565 125.6755,3.3535 C126.163167,2.6505 126.584333,2.05833333 126.939,1.577 L129.2,1.577 C129.098667,2.53966667 128.978333,3.56566667 128.839,4.655 C128.699667,5.74433333 128.538167,6.859 128.3545,7.999 C128.170833,9.139 127.977667,10.2821667 127.775,11.4285 C127.572333,12.5748333 127.369667,13.68 127.167,14.744 L124.792,14.744 C125.121333,13.2113333 125.438,11.6375 125.742,10.0225 C126.046,8.4075 126.324667,6.80833333 126.578,5.225 C126.362667,5.529 126.115667,5.89633333 125.837,6.327 C125.558333,6.75766667 125.260667,7.2105 124.944,7.6855 C124.627333,8.1605 124.304333,8.65133333 123.975,9.158 C123.645667,9.66466667 123.325833,10.1555 123.0155,10.6305 C122.705167,11.1055 122.417,11.5456667 122.151,11.951 C121.885,12.3563333 121.657,12.7046667 121.467,12.996 L119.624,12.996 C119.560667,12.578 119.472,12.027 119.358,11.343 C119.244,10.659 119.117333,9.94016667 118.978,9.1865 C118.838667,8.43283333 118.7025,7.69816667 118.5695,6.9825 C118.4365,6.26683333 118.319333,5.67466667 118.218,5.206 C117.698667,6.78933333 117.214167,8.39483333 116.7645,10.0225 C116.314833,11.6501667 115.887333,13.224 115.482,14.744 L113.126,14.744 C113.43,13.6546667 113.753,12.5273333 114.095,11.362 C114.437,10.1966667 114.7885,9.04083333 115.1495,7.8945 C115.5105,6.74816667 115.868333,5.63666667 116.223,4.56 C116.577667,3.48333333 116.919667,2.489 117.249,1.577 L119.491,1.577 Z" id="M"></path>
                            <path d="M132.24,14.744 L129.96,14.744 L132.335,4.807 L134.634,4.807 L132.24,14.744 Z M133.95,3.306 C133.608,3.306 133.310333,3.20466667 133.057,3.002 C132.803667,2.79933333 132.677,2.49533333 132.677,2.09 C132.677,1.62133333 132.8385,1.235 133.1615,0.931 C133.4845,0.627 133.855,0.475 134.273,0.475 C134.615,0.475 134.915833,0.5795 135.1755,0.7885 C135.435167,0.9975 135.565,1.30466667 135.565,1.71 C135.565,2.17866667 135.400333,2.56183333 135.071,2.8595 C134.741667,3.15716667 134.368,3.306 133.95,3.306 Z" id="i"></path>
                            <path d="M138.624,4.807 L140.201,8.151 C140.682333,7.56833333 141.132,6.99833333 141.55,6.441 C141.968,5.88366667 142.348,5.339 142.69,4.807 L145.065,4.807 C144.533,5.59233333 143.944,6.3935 143.298,7.2105 C142.652,8.0275 141.949,8.854 141.189,9.69 C141.645,10.564 142.063,11.4158333 142.443,12.2455 C142.823,13.0751667 143.158667,13.908 143.45,14.744 L141.132,14.744 C140.929333,14.1486667 140.698167,13.5533333 140.4385,12.958 C140.178833,12.3626667 139.916,11.799 139.65,11.267 L136.629,14.744 L134.121,14.744 L138.662,9.652 L136.211,4.807 L138.624,4.807 Z" id="x"></path>
                            <path d="M151.772,1.444 C153.355333,1.444 154.568167,1.75433333 155.4105,2.375 C156.252833,2.99566667 156.674,3.88233333 156.674,5.035 C156.674,5.947 156.499833,6.72283333 156.1515,7.3625 C155.803167,8.00216667 155.321833,8.52466667 154.7075,8.93 C154.093167,9.33533333 153.3585,9.62983333 152.5035,9.8135 C151.6485,9.99716667 150.708,10.089 149.682,10.089 L148.656,10.089 L147.535,14.744 L145.141,14.744 L148.238,1.767 C148.846,1.64033333 149.454,1.55483333 150.062,1.5105 C150.67,1.46616667 151.24,1.444 151.772,1.444 Z M151.544,3.458 C151.303333,3.458 151.075333,3.46433333 150.86,3.477 C150.644667,3.48966667 150.429333,3.50866667 150.214,3.534 L149.131,8.075 L150.1,8.075 C150.632,8.075 151.145,8.03066667 151.639,7.942 C152.133,7.85333333 152.57,7.7045 152.95,7.4955 C153.33,7.2865 153.634,7.0015 153.862,6.6405 C154.09,6.2795 154.204,5.82033333 154.204,5.263 C154.204,4.617 153.9665,4.15466667 153.4915,3.876 C153.0165,3.59733333 152.367333,3.458 151.544,3.458 Z" id="P"></path>
                            <path d="M165.452,10.887 C165.414,11.0263333 165.376,11.2543333 165.338,11.571 C165.3,11.8876667 165.281,12.1853333 165.281,12.464 C165.281,12.8313333 165.312667,13.1891667 165.376,13.5375 C165.439333,13.8858333 165.540667,14.2373333 165.68,14.592 L163.628,14.896 C163.476,14.592 163.355667,14.269 163.267,13.927 C162.950333,14.2056667 162.560833,14.4558333 162.0985,14.6775 C161.636167,14.8991667 161.113667,15.01 160.531,15.01 C159.935667,15.01 159.425833,14.9118333 159.0015,14.7155 C158.577167,14.5191667 158.232,14.2468333 157.966,13.8985 C157.7,13.5501667 157.503667,13.1416667 157.377,12.673 C157.250333,12.2043333 157.187,11.6976667 157.187,11.153 C157.187,10.2283333 157.351667,9.367 157.681,8.569 C158.010333,7.771 158.4695,7.08066667 159.0585,6.498 C159.6475,5.91533333 160.347333,5.45616667 161.158,5.1205 C161.968667,4.78483333 162.855333,4.617 163.818,4.617 C164.312,4.617 164.809167,4.65816667 165.3095,4.7405 C165.809833,4.82283333 166.313333,4.978 166.82,5.206 L165.452,10.887 Z M164.198,6.593 C163.957333,6.54233333 163.685,6.517 163.381,6.517 C162.811,6.517 162.285333,6.6405 161.804,6.8875 C161.322667,7.1345 160.907833,7.46383333 160.5595,7.8755 C160.211167,8.28716667 159.942,8.759 159.752,9.291 C159.562,9.823 159.467,10.3803333 159.467,10.963 C159.467,11.2543333 159.492333,11.5266667 159.543,11.78 C159.593667,12.0333333 159.679167,12.255 159.7995,12.445 C159.919833,12.635 160.081333,12.787 160.284,12.901 C160.486667,13.015 160.746333,13.072 161.063,13.072 C161.468333,13.072 161.826167,12.9865 162.1365,12.8155 C162.446833,12.6445 162.735,12.4133333 163.001,12.122 C163.013667,11.7926667 163.042167,11.4823333 163.0865,11.191 C163.130833,10.8996667 163.191,10.6083333 163.267,10.317 L164.198,6.593 Z" id="a"></path>
                            <path d="M177.289,4.807 C177.035667,5.529 176.757,6.2795 176.453,7.0585 C176.149,7.8375 175.810167,8.61966667 175.4365,9.405 C175.062833,10.1903333 174.660667,10.9725 174.23,11.7515 C173.799333,12.5305 173.337,13.2873333 172.843,14.022 C172.475667,14.5793333 172.095667,15.1145 171.703,15.6275 C171.310333,16.1405 170.882833,16.5933333 170.4205,16.986 C169.958167,17.3786667 169.448333,17.6953333 168.891,17.936 C168.333667,18.1766667 167.700333,18.297 166.991,18.297 C166.598333,18.297 166.246833,18.2526667 165.9365,18.164 C165.626167,18.0753333 165.363333,17.974 165.148,17.86 L165.889,16.017 C166.066333,16.1183333 166.265833,16.2006667 166.4875,16.264 C166.709167,16.3273333 166.953,16.359 167.219,16.359 C167.814333,16.359 168.336833,16.2038333 168.7865,15.8935 C169.236167,15.5831667 169.644667,15.162 170.012,14.63 C169.606667,13.224 169.264667,11.6976667 168.986,10.051 C168.707333,8.40433333 168.523667,6.65633333 168.435,4.807 L170.753,4.807 C170.765667,5.339 170.794167,5.928 170.8385,6.574 C170.882833,7.22 170.939833,7.88183333 171.0095,8.5595 C171.079167,9.23716667 171.164667,9.90533333 171.266,10.564 C171.367333,11.2226667 171.481333,11.8306667 171.608,12.388 C171.988,11.78 172.342667,11.1403333 172.672,10.469 C173.001333,9.79766667 173.305333,9.1295 173.584,8.4645 C173.862667,7.7995 174.1065,7.1535 174.3155,6.5265 C174.5245,5.8995 174.705,5.32633333 174.857,4.807 L177.289,4.807 Z" id="y"></path>
                        </g>
                    </g>
                </g>
            </g>
        </g>
    </g>
</svg>